<svg xmlns="http://www.w3.org/2000/svg" xmlns:xlink="http://www.w3.org/1999/xlink" width="640" height="640" viewBox="0 -31 480 479"><linearGradient id="a"><stop offset="0" stop-color="#e93e3a"/><stop offset=".35" stop-color="#ed683c"/><stop offset=".7" stop-color="#f3903f"/><stop offset="1" stop-color="#fdc70c"/></linearGradient><linearGradient id="b" x1="80" x2="80" y1="422.604" y2="-30.86" gradientUnits="userSpaceOnUse" xlink:href="#a"/><linearGradient id="c" x1="160" x2="160" y1="422.604" y2="-30.86" gradientUnits="userSpaceOnUse" xlink:href="#a"/><linearGradient id="d" x1="240" x2="240" y1="422.604" y2="-30.86" gradientUnits="userSpaceOnUse" xlink:href="#a"/><linearGradient id="e" x1="320" x2="320" y1="422.604" y2="-30.86" gradientUnits="userSpaceOnUse" xlink:href="#a"/><linearGradient id="f" x1="400" x2="400" y1="422.604" y2="-30.86" gradientUnits="userSpaceOnUse" xlink:href="#a"/><linearGradient id="g" x1="288" x2="288" y1="422.604" y2="-30.86" gradientUnits="userSpaceOnUse" xlink:href="#a"/><linearGradient id="h" x1="192" x2="192" y1="422.604" y2="-30.86" gradientUnits="userSpaceOnUse" xlink:href="#a"/><linearGradient id="i" x1="384" x2="384" y1="422.604" y2="-30.86" gradientUnits="userSpaceOnUse" xlink:href="#a"/><linearGradient id="j" x1="112" x2="112" y1="422.604" y2="-30.86" gradientUnits="userSpaceOnUse" xlink:href="#a"/><path fill="url(#b)" d="m104 32.5h-48c-4.417969 0-8 3.582031-8 8v48c0 4.417969 3.582031 8 8 8h48c4.417969 0 8-3.582031 8-8v-48c0-4.417969-3.582031-8-8-8zm-8 48h-32v-32h32zm0 0"/><path fill="url(#c)" d="m184 32.5h-48c-4.417969 0-8 3.582031-8 8v48c0 4.417969 3.582031 8 8 8h48c4.417969 0 8-3.582031 8-8v-48c0-4.417969-3.582031-8-8-8zm-8 48h-32v-32h32zm0 0"/><path fill="url(#d)" d="m264 32.5h-48c-4.417969 0-8 3.582031-8 8v48c0 4.417969 3.582031 8 8 8h48c4.417969 0 8-3.582031 8-8v-48c0-4.417969-3.582031-8-8-8zm-8 48h-32v-32h32zm0 0"/><path fill="url(#e)" d="m344 32.5h-48c-4.417969 0-8 3.582031-8 8v48c0 4.417969 3.582031 8 8 8h48c4.417969 0 8-3.582031 8-8v-48c0-4.417969-3.582031-8-8-8zm-8 48h-32v-32h32zm0 0"/><path fill="url(#f)" d="m424 32.5h-48c-4.417969 0-8 3.582031-8 8v48c0 4.417969 3.582031 8 8 8h48c4.417969 0 8-3.582031 8-8v-48c0-4.417969-3.582031-8-8-8zm-8 48h-32v-32h32zm0 0"/><path fill="url(#b)" d="m56 384.5h48c4.417969 0 8-3.582031 8-8v-48c0-4.417969-3.582031-8-8-8h-48c-4.417969 0-8 3.582031-8 8v48c0 4.417969 3.582031 8 8 8zm8-48h32v32h-32zm0 0"/><path fill="url(#c)" d="m136 384.5h48c4.417969 0 8-3.582031 8-8v-48c0-4.417969-3.582031-8-8-8h-48c-4.417969 0-8 3.582031-8 8v48c0 4.417969 3.582031 8 8 8zm8-48h32v32h-32zm0 0"/><path fill="url(#d)" d="m216 384.5h48c4.417969 0 8-3.582031 8-8v-48c0-4.417969-3.582031-8-8-8h-48c-4.417969 0-8 3.582031-8 8v48c0 4.417969 3.582031 8 8 8zm8-48h32v32h-32zm0 0"/><path fill="url(#e)" d="m296 384.5h48c4.417969 0 8-3.582031 8-8v-48c0-4.417969-3.582031-8-8-8h-48c-4.417969 0-8 3.582031-8 8v48c0 4.417969 3.582031 8 8 8zm8-48h32v32h-32zm0 0"/><path fill="url(#f)" d="m376 384.5h48c4.417969 0 8-3.582031 8-8v-48c0-4.417969-3.582031-8-8-8h-48c-4.417969 0-8 3.582031-8 8v48c0 4.417969 3.582031 8 8 8zm8-48h32v32h-32zm0 0"/><path fill="url(#d)" d="m472 .5h-464c-4.417969 0-8 3.582031-8 8v400c0 4.417969 3.582031 8 8 8h464c4.417969 0 8-3.582031 8-8v-400c0-4.417969-3.582031-8-8-8zm-456 16h448v96h-448zm448 112v160h-448v-160zm0 272h-448v-96h448zm0 0"/><path fill="url(#g)" d="m264 264.5h48c8.835938 0 16-7.164062 16-16v-80c0-8.835938-7.164062-16-16-16h-48c-8.835938 0-16 7.164062-16 16v80c0 8.835938 7.164062 16 16 16zm0-16v-32h48v32zm48-80v32h-48v-32zm0 0"/><path fill="url(#h)" d="m168 264.5h48c8.835938 0 16-7.164062 16-16v-80c0-8.835938-7.164062-16-16-16h-48c-8.835938 0-16 7.164062-16 16v80c0 8.835938 7.164062 16 16 16zm0-96h48v80h-48zm0 0"/><path fill="url(#i)" d="m360 264.5h48c8.835938 0 16-7.164062 16-16v-80c0-8.835938-7.164062-16-16-16h-48c-8.835938 0-16 7.164062-16 16v80c0 8.835938 7.164062 16 16 16zm0-96h48v80h-48zm0 0"/><path fill="url(#j)" d="m88 248.5v16h48v-16h-16v-96h-16v8h-16v16h16v72zm0 0"/></svg>